G04 ================== begin FILE IDENTIFICATION RECORD ==================*
G04 Layout Name:  C:/Users/emiba/OneDrive/Desktop/P1_B_N1/allegro/p1_b_n1.brd*
G04 Film Name:    SMTOP*
G04 File Format:  Gerber RS274X*
G04 File Origin:  Cadence Allegro 24.1-P001*
G04 Origin Date:  Thu Dec 12 23:01:20 2024*
G04 *
G04 Layer:  VIA CLASS/SOLDERMASK_TOP*
G04 Layer:  PIN/SOLDERMASK_TOP*
G04 Layer:  PACKAGE GEOMETRY/SOLDERMASK_TOP*
G04 Layer:  DRC ERROR CLASS/SOLDERMASK_TOP*
G04 Layer:  BOARD GEOMETRY/SOLDERMASK_TOP*
G04 *
G04 Offset:    (0.000 0.000)*
G04 Mirror:    No*
G04 Mode:      Positive*
G04 Rotation:  0*
G04 FullContactRelief:  No*
G04 UndefLineWidth:     0.254*
G04 ================== end FILE IDENTIFICATION RECORD ====================*
%FSLAX25Y25*MOMM*%
%IR0*IPPOS*OFA0.00000B0.00000*MIA0B0*SFA1.00000B1.00000*%
%ADD13C,1.*%
%ADD14C,2.*%
%ADD12R,1.155X.776*%
%ADD11R,1.485X1.485*%
%ADD15R,1.7X1.5*%
%ADD16R,1.537X1.76*%
%ADD10R,3.297X2.095*%
%LPD*%
G75*
G54D10*
X370000Y914000D03*
Y647300D03*
Y1269000D03*
Y1535700D03*
X3133000Y734000D03*
Y467300D03*
X3640000Y2599300D03*
Y2866000D03*
G54D11*
X371000Y1898600D03*
Y2112000D03*
X417000Y3004000D03*
Y3217400D03*
X1056000Y712000D03*
Y498600D03*
X1258000Y2685000D03*
X1044600D03*
X958000Y3685000D03*
X1171400D03*
X2162000Y485000D03*
Y698400D03*
X1682000Y463000D03*
X1468600D03*
X1683000Y994000D03*
Y780600D03*
X2025600Y2063000D03*
X1780000Y3096000D03*
Y3309400D03*
X1886000Y3690000D03*
X1672600D03*
X2521000Y1016000D03*
X2711000Y601000D03*
X2497600D03*
X2521000Y1229400D03*
X2239000Y2063000D03*
X3555000Y1136000D03*
Y1349400D03*
X3176000Y1616000D03*
Y1829400D03*
X3179000Y2145000D03*
Y2358400D03*
Y2721000D03*
Y2934400D03*
X3695000Y3440000D03*
Y3653400D03*
G54D12*
X616000Y2596000D03*
X419000Y2501000D03*
X418000Y2691000D03*
X1110000Y1079000D03*
X1308000Y984000D03*
X1126000Y1604000D03*
X929000Y1509000D03*
X928000Y1699000D03*
X1307000Y1174000D03*
X1138000Y2117000D03*
X941000Y2022000D03*
X940000Y2212000D03*
X1044000Y3155000D03*
X847000Y3060000D03*
X846000Y3250000D03*
X2028000Y1398000D03*
X2027000Y1588000D03*
X1684000Y1601000D03*
X1487000Y1506000D03*
X1486000Y1696000D03*
X1684000Y2123000D03*
X1487000Y2028000D03*
X1486000Y2218000D03*
X1945000Y2616000D03*
X1748000Y2521000D03*
X1747000Y2711000D03*
X2225000Y1493000D03*
X2851000Y1774000D03*
X2654000Y1679000D03*
X2653000Y1869000D03*
X2844000Y2287000D03*
X2647000Y2192000D03*
X2646000Y2382000D03*
G54D13*
X602000Y2274000D03*
X1291000Y1840000D03*
X748800Y1265000D03*
X1305000Y2117000D03*
X1044600Y2478600D03*
X846000Y2791600D03*
X1683000Y1193000D03*
X2126400Y1820400D03*
X1413000Y3096000D03*
X2162000Y235000D03*
X2839500Y898500D03*
X2239000Y2375400D03*
X2193500Y3313500D03*
X2646000Y2861000D03*
X2869000Y3595000D03*
G54D14*
X510000Y3500000D03*
X3500000Y510000D03*
G54D15*
X2403000Y3451000D03*
X2405000Y2923000D03*
Y2723000D03*
X2403000Y3651000D03*
G54D16*
X2950000Y1138000D03*
Y1338700D03*
X3182000Y3452300D03*
Y3653000D03*
M02*
