G04 ================== begin FILE IDENTIFICATION RECORD ==================*
G04 Layout Name:  C:/Users/emiba/OneDrive/Desktop/P1_B_N1/allegro/p1_b_n1.brd*
G04 Film Name:    SSTOP*
G04 File Format:  Gerber RS274X*
G04 File Origin:  Cadence Allegro 24.1-P001*
G04 Origin Date:  Thu Dec 12 23:01:20 2024*
G04 *
G04 Layer:  USER PART NUMBER/SILKSCREEN_TOP*
G04 Layer:  TOLERANCE/SILKSCREEN_TOP*
G04 Layer:  REF DES/SILKSCREEN_TOP*
G04 Layer:  PACKAGE GEOMETRY/SILKSCREEN_TOP*
G04 Layer:  DEVICE TYPE/SILKSCREEN_TOP*
G04 Layer:  COMPONENT VALUE/SILKSCREEN_TOP*
G04 Layer:  BOARD GEOMETRY/SILKSCREEN_TOP*
G04 *
G04 Offset:    (0.000 0.000)*
G04 Mirror:    No*
G04 Mode:      Positive*
G04 Rotation:  0*
G04 FullContactRelief:  No*
G04 UndefLineWidth:     0.254*
G04 ================== end FILE IDENTIFICATION RECORD ====================*
%FSLAX25Y25*MOMM*%
%IR0*IPPOS*OFA0.00000B0.00000*MIA0B0*SFA1.00000B1.00000*%
%ADD10C,.1*%
%ADD11C,.2*%
%ADD12C,.25*%
%ADD13C,.152*%
%ADD14C,.127*%
G75*
%LPD*%
G75*
G54D10*
G01X177700Y289500D02*
X180400Y292600D01*
X182400Y297700D01*
X183800Y304800D01*
X182400Y310900D01*
X179700Y314900D01*
X175000Y318000D01*
X156700D01*
Y257000D01*
X179100D01*
X183800Y261100D01*
X186500Y267200D01*
X187900Y274300D01*
X186500Y281400D01*
X182400Y287500D01*
X177700Y289500D01*
X156700D01*
G01X245400Y257000D02*
Y297700D01*
G01Y290600D02*
X242700Y294600D01*
X238600Y296600D01*
X233900Y297700D01*
X229100Y295600D01*
X225100Y291600D01*
X222400Y285500D01*
X221000Y277300D01*
X222400Y269200D01*
X225100Y263100D01*
X229100Y259000D01*
X233900Y257000D01*
X238600Y258000D01*
X242700Y261100D01*
X245400Y265100D01*
G01X284600Y257000D02*
Y297700D01*
G01Y289500D02*
X288000Y293600D01*
X291400Y296600D01*
X296100Y297700D01*
X299500Y296600D01*
X303600Y293600D01*
G01X367200Y318000D02*
Y257000D01*
G01Y266100D02*
X364500Y261100D01*
X360400Y258000D01*
X355700Y257000D01*
X350300Y259000D01*
X346200Y264100D01*
X343500Y270200D01*
X342800Y277300D01*
X343500Y284400D01*
X346200Y290600D01*
X350300Y295600D01*
X355700Y297700D01*
X360400Y296600D01*
X363800Y294600D01*
X367200Y290600D01*
G01X428100Y257000D02*
Y297700D01*
G01Y290600D02*
X425400Y294600D01*
X421300Y296600D01*
X416600Y297700D01*
X411800Y295600D01*
X407800Y291600D01*
X405100Y285500D01*
X403700Y277300D01*
X405100Y269200D01*
X407800Y263100D01*
X411800Y259000D01*
X416600Y257000D01*
X421300Y258000D01*
X425400Y261100D01*
X428100Y265100D01*
G01X466700Y264100D02*
X470000Y260000D01*
X474800Y257000D01*
X478800D01*
X482900Y259000D01*
X485600Y262100D01*
X486900Y266100D01*
X486300Y272300D01*
X483600Y275300D01*
X471400Y281400D01*
X468700Y288500D01*
X470000Y293600D01*
X472700Y296600D01*
X476800Y297700D01*
X480900Y296600D01*
X484900Y293600D01*
G01X526200Y297700D02*
Y269200D01*
X528900Y262100D01*
X533000Y258000D01*
X537700Y257000D01*
X542400Y258000D01*
X546500Y262100D01*
X549200Y269200D01*
G01Y257000D02*
Y297700D01*
G01X673000Y257000D02*
X646000D01*
Y318000D01*
X673000D01*
G01X662200Y288500D02*
X646000D01*
G01X700100Y257000D02*
Y297700D01*
G01Y286500D02*
X702100Y291600D01*
X705500Y295600D01*
X710300Y297700D01*
X715000Y295600D01*
X718400Y291600D01*
X720400Y286500D01*
Y257000D01*
G01Y286500D02*
X722400Y291600D01*
X725800Y295600D01*
X730500Y297700D01*
X735300Y295600D01*
X738700Y291600D01*
X740700Y285500D01*
Y257000D01*
G01X781300Y297700D02*
Y257000D01*
G01Y313900D02*
X779900Y314900D01*
Y317000D01*
X781300Y318000D01*
X782700Y317000D01*
Y314900D01*
X781300Y313900D01*
G01X842200Y257000D02*
Y318000D01*
G01X903100Y297700D02*
Y257000D01*
G01Y313900D02*
X901700Y314900D01*
Y317000D01*
X903100Y318000D01*
X904500Y317000D01*
Y314900D01*
X903100Y313900D01*
G01X976200Y257000D02*
Y297700D01*
G01Y290600D02*
X973500Y294600D01*
X969400Y296600D01*
X964700Y297700D01*
X959900Y295600D01*
X955900Y291600D01*
X953200Y285500D01*
X951800Y277300D01*
X953200Y269200D01*
X955900Y263100D01*
X959900Y259000D01*
X964700Y257000D01*
X969400Y258000D01*
X973500Y261100D01*
X976200Y265100D01*
G01X1013400Y257000D02*
Y297700D01*
G01Y287500D02*
X1016100Y292600D01*
X1020200Y296600D01*
X1025600Y297700D01*
X1030300Y296600D01*
X1034400Y292600D01*
X1036400Y285500D01*
Y257000D01*
G01X1129800D02*
X1146700Y318000D01*
X1163600Y257000D01*
G01X1157500Y278300D02*
X1135900D01*
G01X1196100Y257000D02*
Y297700D01*
G01Y287500D02*
X1198800Y292600D01*
X1202900Y296600D01*
X1208300Y297700D01*
X1213000Y296600D01*
X1217100Y292600D01*
X1219100Y285500D01*
Y257000D01*
G01X1280700Y318000D02*
Y257000D01*
G01Y266100D02*
X1278000Y261100D01*
X1273900Y258000D01*
X1269200Y257000D01*
X1263800Y259000D01*
X1259700Y264100D01*
X1257000Y270200D01*
X1256300Y277300D01*
X1257000Y284400D01*
X1259700Y290600D01*
X1263800Y295600D01*
X1269200Y297700D01*
X1273900Y296600D01*
X1277300Y294600D01*
X1280700Y290600D01*
G01X1319900Y257000D02*
Y297700D01*
G01Y289500D02*
X1323300Y293600D01*
X1326700Y296600D01*
X1331400Y297700D01*
X1334800Y296600D01*
X1338900Y293600D01*
G01X1380200Y284400D02*
X1401800D01*
X1399800Y291600D01*
X1396400Y295600D01*
X1391700Y297700D01*
X1386900Y296600D01*
X1382900Y293600D01*
X1380200Y286500D01*
X1378800Y280400D01*
Y274300D01*
X1380200Y268200D01*
X1383500Y262100D01*
X1387600Y258000D01*
X1392300Y257000D01*
X1397100Y259000D01*
X1401800Y265100D01*
G01X1451200Y297700D02*
Y257000D01*
G01Y313900D02*
X1449800Y314900D01*
Y317000D01*
X1451200Y318000D01*
X1452600Y317000D01*
Y314900D01*
X1451200Y313900D01*
G01X180400Y178300D02*
Y239300D01*
X155400Y195600D01*
X189200D01*
G01X218300Y190500D02*
X222400Y183400D01*
X227800Y179300D01*
X233900Y178300D01*
X239300Y179300D01*
X244700Y184400D01*
X248100Y190500D01*
X248800Y196600D01*
X247400Y203700D01*
X242700Y208800D01*
X237900Y210800D01*
X231800D01*
G01X237900D02*
X242000Y213900D01*
X245400Y219000D01*
X246700Y225100D01*
X245400Y231200D01*
X242000Y236200D01*
X235900Y239300D01*
X229800Y238300D01*
X223700Y234200D01*
G01X279200Y190500D02*
X283300Y183400D01*
X288700Y179300D01*
X294800Y178300D01*
X300200Y179300D01*
X305600Y184400D01*
X309000Y190500D01*
X309700Y196600D01*
X308300Y203700D01*
X303600Y208800D01*
X298800Y210800D01*
X292700D01*
G01X298800D02*
X302900Y213900D01*
X306300Y219000D01*
X307600Y225100D01*
X306300Y231200D01*
X302900Y236200D01*
X296800Y239300D01*
X290700Y238300D01*
X284600Y234200D01*
G01X360400Y210800D02*
X363100Y213900D01*
X365100Y219000D01*
X366500Y226100D01*
X365100Y232200D01*
X362400Y236200D01*
X357700Y239300D01*
X339400D01*
Y178300D01*
X361800D01*
X366500Y182400D01*
X369200Y188500D01*
X370600Y195600D01*
X369200Y202700D01*
X365100Y208800D01*
X360400Y210800D01*
X339400D01*
G01X463300Y178300D02*
Y239300D01*
X479500D01*
X484900Y236200D01*
X489000Y229100D01*
X490300Y221000D01*
X489000Y212900D01*
X485600Y206800D01*
X479500Y203700D01*
X463300D01*
G01X537700Y178300D02*
Y239300D01*
X529600Y227100D01*
G01Y178300D02*
X545800D01*
G01X583700D02*
Y239300D01*
X597200D01*
X602700Y236200D01*
X606700Y232200D01*
X610100Y226100D01*
X612800Y219000D01*
X613500Y208800D01*
X612800Y198600D01*
X610100Y191500D01*
X606700Y185400D01*
X602700Y181300D01*
X597200Y178300D01*
X583700D01*
G01X674400Y234200D02*
X670300Y237300D01*
X665600Y239300D01*
X660200D01*
X654100Y236200D01*
X649400Y231200D01*
X646000Y225100D01*
X643300Y214900D01*
X642600Y205700D01*
X643900Y196600D01*
X646000Y190500D01*
X650000Y184400D01*
X654800Y180300D01*
X659500Y178300D01*
X664200D01*
X669000Y180300D01*
X673000Y183400D01*
X676400Y187400D01*
G01X733900Y178300D02*
X706900D01*
Y239300D01*
X733900D01*
G01X723100Y209800D02*
X706900D01*
G01X829300Y229100D02*
X833400Y235200D01*
X838100Y238300D01*
X843600Y239300D01*
X850300Y237300D01*
X855100Y232200D01*
X856400Y226100D01*
X855700Y220000D01*
X853000Y214900D01*
X839500Y204700D01*
X833400Y197600D01*
X829300Y187400D01*
X828000Y178300D01*
X856400D01*
G01X903100Y239300D02*
X897700Y237300D01*
X893600Y232200D01*
X890900Y226100D01*
X888900Y217900D01*
X888200Y208800D01*
X888900Y199600D01*
X890900Y191500D01*
X893600Y185400D01*
X897700Y180300D01*
X903100Y178300D01*
X908500Y180300D01*
X912600Y185400D01*
X915300Y191500D01*
X917300Y199600D01*
X918000Y208800D01*
X917300Y217900D01*
X915300Y226100D01*
X912600Y232200D01*
X908500Y237300D01*
X903100Y239300D01*
G01X951100Y229100D02*
X955200Y235200D01*
X959900Y238300D01*
X965400Y239300D01*
X972100Y237300D01*
X976900Y232200D01*
X978200Y226100D01*
X977500Y220000D01*
X974800Y214900D01*
X961300Y204700D01*
X955200Y197600D01*
X951100Y187400D01*
X949800Y178300D01*
X978200D01*
G01X1033000D02*
Y239300D01*
X1008000Y195600D01*
X1041800D01*
G01X1077000Y198600D02*
X1094600D01*
G01X1133800Y229100D02*
X1137900Y235200D01*
X1142600Y238300D01*
X1148100Y239300D01*
X1154800Y237300D01*
X1159600Y232200D01*
X1160900Y226100D01*
X1160200Y220000D01*
X1157500Y214900D01*
X1144000Y204700D01*
X1137900Y197600D01*
X1133800Y187400D01*
X1132500Y178300D01*
X1160900D01*
G01X1207600Y239300D02*
X1202200Y237300D01*
X1198100Y232200D01*
X1195400Y226100D01*
X1193400Y217900D01*
X1192700Y208800D01*
X1193400Y199600D01*
X1195400Y191500D01*
X1198100Y185400D01*
X1202200Y180300D01*
X1207600Y178300D01*
X1213000Y180300D01*
X1217100Y185400D01*
X1219800Y191500D01*
X1221800Y199600D01*
X1222500Y208800D01*
X1221800Y217900D01*
X1219800Y226100D01*
X1217100Y232200D01*
X1213000Y237300D01*
X1207600Y239300D01*
G01X1255600Y229100D02*
X1259700Y235200D01*
X1264400Y238300D01*
X1269900Y239300D01*
X1276600Y237300D01*
X1281400Y232200D01*
X1282700Y226100D01*
X1282000Y220000D01*
X1279300Y214900D01*
X1265800Y204700D01*
X1259700Y197600D01*
X1255600Y187400D01*
X1254300Y178300D01*
X1282700D01*
G01X1314500Y187400D02*
X1318600Y182400D01*
X1323300Y179300D01*
X1329400Y178300D01*
X1335500Y180300D01*
X1340200Y184400D01*
X1343600Y191500D01*
X1344300Y199600D01*
X1342900Y207800D01*
X1339500Y212900D01*
X1334800Y216900D01*
X1330100Y217900D01*
X1325300Y216900D01*
X1319300Y212900D01*
X1321300Y239300D01*
X1339500D01*
G01X310800Y1720200D02*
X314200Y1714100D01*
X318200Y1710000D01*
X322900Y1708000D01*
X328400Y1710000D01*
X332400Y1714100D01*
X336500Y1720200D01*
X337800Y1728300D01*
Y1769000D01*
G01X385200Y1708000D02*
Y1769000D01*
X377100Y1756800D01*
G01Y1708000D02*
X393300D01*
G01X287800Y2236000D02*
Y2297000D01*
X304700D01*
X310100Y2293900D01*
X313500Y2289900D01*
X314800Y2281700D01*
X313500Y2273600D01*
X309400Y2268500D01*
X304700Y2265500D01*
X287800D01*
G01X304700D02*
X314800Y2236000D01*
G01X349300Y2261400D02*
X354100Y2268500D01*
X358100Y2272600D01*
X363600Y2274600D01*
X368300Y2272600D01*
X371700Y2268500D01*
X374400Y2262400D01*
X375100Y2255300D01*
X374400Y2249200D01*
X371700Y2243100D01*
X367600Y2238000D01*
X362900Y2236000D01*
X357500Y2238000D01*
X352700Y2244100D01*
X350000Y2253300D01*
X349300Y2263400D01*
X350700Y2276700D01*
X352700Y2283800D01*
X356100Y2290900D01*
X360800Y2296000D01*
X365600Y2297000D01*
X370300Y2295000D01*
X373700Y2289900D01*
G01X238800Y3350000D02*
Y3411000D01*
X255700D01*
X261100Y3407900D01*
X264500Y3403900D01*
X265800Y3395700D01*
X264500Y3387600D01*
X260400Y3382500D01*
X255700Y3379500D01*
X238800D01*
G01X255700D02*
X265800Y3350000D01*
G01X313200D02*
Y3411000D01*
X305100Y3398800D01*
G01Y3350000D02*
X321300D01*
G01X374100D02*
X378800Y3351000D01*
X384200Y3354100D01*
X387600Y3359100D01*
X389000Y3366300D01*
X387600Y3373400D01*
X383600Y3379500D01*
X377500Y3382500D01*
X370700D01*
X366700Y3384600D01*
X363300Y3389600D01*
X361900Y3396800D01*
X364000Y3403900D01*
X368700Y3409000D01*
X374100Y3411000D01*
X379500Y3409000D01*
X384200Y3403900D01*
X386300Y3396800D01*
X384900Y3389600D01*
X381500Y3384600D01*
X377500Y3382500D01*
X370700D01*
X364600Y3379500D01*
X360600Y3373400D01*
X359200Y3366300D01*
X360600Y3359100D01*
X364000Y3354100D01*
X369400Y3351000D01*
X374100Y3350000D01*
G01X346300Y2796000D02*
X340900Y2797000D01*
X336200Y2801100D01*
X332100Y2807200D01*
X329400Y2814300D01*
X328000Y2822400D01*
Y2830600D01*
X329400Y2838700D01*
X332100Y2845800D01*
X336200Y2851900D01*
X340900Y2856000D01*
X346300Y2857000D01*
X351700Y2856000D01*
X356400Y2851900D01*
X360500Y2845800D01*
X363200Y2838700D01*
X364600Y2830600D01*
Y2822400D01*
X363200Y2814300D01*
X360500Y2807200D01*
X356400Y2801100D01*
X351700Y2797000D01*
X346300Y2796000D01*
G01X351700Y2812300D02*
X359800Y2796000D01*
G01X407200D02*
Y2857000D01*
X399100Y2844800D01*
G01Y2796000D02*
X415300D01*
G01X453200Y2805100D02*
X457300Y2800100D01*
X462000Y2797000D01*
X468100Y2796000D01*
X474200Y2798000D01*
X478900Y2802100D01*
X482300Y2809200D01*
X483000Y2817300D01*
X481600Y2825500D01*
X478200Y2830600D01*
X473500Y2834600D01*
X468800Y2835600D01*
X464000Y2834600D01*
X458000Y2830600D01*
X460000Y2857000D01*
X478200D01*
G01X346300Y2796000D02*
X340900Y2797000D01*
X336200Y2801100D01*
X332100Y2807200D01*
X329400Y2814300D01*
X328000Y2822400D01*
Y2830600D01*
X329400Y2838700D01*
X332100Y2845800D01*
X336200Y2851900D01*
X340900Y2856000D01*
X346300Y2857000D01*
X351700Y2856000D01*
X356400Y2851900D01*
X360500Y2845800D01*
X363200Y2838700D01*
X364600Y2830600D01*
Y2822400D01*
X363200Y2814300D01*
X360500Y2807200D01*
X356400Y2801100D01*
X351700Y2797000D01*
X346300Y2796000D01*
G01X351700Y2812300D02*
X359800Y2796000D01*
G01X407200D02*
Y2857000D01*
X399100Y2844800D01*
G01Y2796000D02*
X415300D01*
G01X453200Y2805100D02*
X457300Y2800100D01*
X462000Y2797000D01*
X468100Y2796000D01*
X474200Y2798000D01*
X478900Y2802100D01*
X482300Y2809200D01*
X483000Y2817300D01*
X481600Y2825500D01*
X478200Y2830600D01*
X473500Y2834600D01*
X468800Y2835600D01*
X464000Y2834600D01*
X458000Y2830600D01*
X460000Y2857000D01*
X478200D01*
G01X985800Y827000D02*
Y888000D01*
X1002700D01*
X1008100Y884900D01*
X1011500Y880900D01*
X1012800Y872700D01*
X1011500Y864600D01*
X1007400Y859500D01*
X1002700Y856500D01*
X985800D01*
G01X1002700D02*
X1012800Y827000D01*
G01X1060200D02*
Y888000D01*
X1052100Y875800D01*
G01Y827000D02*
X1068300D01*
G01X1129200D02*
Y888000D01*
X1104200Y844300D01*
X1138000D01*
G01X589800Y952200D02*
X593200Y946100D01*
X597200Y942000D01*
X601900Y940000D01*
X607400Y942000D01*
X611400Y946100D01*
X615500Y952200D01*
X616800Y960300D01*
Y1001000D01*
G01X651300Y990800D02*
X655400Y996900D01*
X660100Y1000000D01*
X665600Y1001000D01*
X672300Y999000D01*
X677100Y993900D01*
X678400Y987800D01*
X677700Y981700D01*
X675000Y976600D01*
X661500Y966400D01*
X655400Y959300D01*
X651300Y949100D01*
X650000Y940000D01*
X678400D01*
G01X853300Y1131000D02*
X847900Y1132000D01*
X843200Y1136100D01*
X839100Y1142200D01*
X836400Y1149300D01*
X835000Y1157400D01*
Y1165600D01*
X836400Y1173700D01*
X839100Y1180800D01*
X843200Y1186900D01*
X847900Y1191000D01*
X853300Y1192000D01*
X858700Y1191000D01*
X863400Y1186900D01*
X867500Y1180800D01*
X870200Y1173700D01*
X871600Y1165600D01*
Y1157400D01*
X870200Y1149300D01*
X867500Y1142200D01*
X863400Y1136100D01*
X858700Y1132000D01*
X853300Y1131000D01*
G01X858700Y1147300D02*
X866800Y1131000D01*
G01X914200D02*
Y1192000D01*
X906100Y1179800D01*
G01Y1131000D02*
X922300D01*
G01X962200Y1181800D02*
X966300Y1187900D01*
X971000Y1191000D01*
X976500Y1192000D01*
X983200Y1190000D01*
X988000Y1184900D01*
X989300Y1178800D01*
X988600Y1172700D01*
X985900Y1167600D01*
X972400Y1157400D01*
X966300Y1150300D01*
X962200Y1140100D01*
X960900Y1131000D01*
X989300D01*
G01X736300Y1574000D02*
X730900Y1575000D01*
X726200Y1579100D01*
X722100Y1585200D01*
X719400Y1592300D01*
X718000Y1600400D01*
Y1608600D01*
X719400Y1616700D01*
X722100Y1623800D01*
X726200Y1629900D01*
X730900Y1634000D01*
X736300Y1635000D01*
X741700Y1634000D01*
X746400Y1629900D01*
X750500Y1623800D01*
X753200Y1616700D01*
X754600Y1608600D01*
Y1600400D01*
X753200Y1592300D01*
X750500Y1585200D01*
X746400Y1579100D01*
X741700Y1575000D01*
X736300Y1574000D01*
G01X741700Y1590300D02*
X749800Y1574000D01*
G01X785700Y1581100D02*
X790400Y1576000D01*
X795800Y1574000D01*
X801300Y1576000D01*
X806000Y1582100D01*
X809400Y1591300D01*
X810700Y1600400D01*
Y1611600D01*
X809400Y1620800D01*
X806000Y1628900D01*
X801900Y1633000D01*
X797200Y1635000D01*
X791800Y1633000D01*
X787700Y1628900D01*
X785000Y1622800D01*
X783700Y1614700D01*
X785000Y1607600D01*
X788400Y1600400D01*
X792500Y1596400D01*
X797200Y1595300D01*
X802600Y1597400D01*
X806700Y1602500D01*
X810700Y1611600D01*
G01X1335800Y2486000D02*
Y2547000D01*
X1352700D01*
X1358100Y2543900D01*
X1361500Y2539900D01*
X1362800Y2531700D01*
X1361500Y2523600D01*
X1357400Y2518500D01*
X1352700Y2515500D01*
X1335800D01*
G01X1352700D02*
X1362800Y2486000D01*
G01X1418300D02*
Y2547000D01*
X1393300Y2503300D01*
X1427100D01*
G01X1029300Y2301000D02*
X1023900Y2302000D01*
X1019200Y2306100D01*
X1015100Y2312200D01*
X1012400Y2319300D01*
X1011000Y2327400D01*
Y2335600D01*
X1012400Y2343700D01*
X1015100Y2350800D01*
X1019200Y2356900D01*
X1023900Y2361000D01*
X1029300Y2362000D01*
X1034700Y2361000D01*
X1039400Y2356900D01*
X1043500Y2350800D01*
X1046200Y2343700D01*
X1047600Y2335600D01*
Y2327400D01*
X1046200Y2319300D01*
X1043500Y2312200D01*
X1039400Y2306100D01*
X1034700Y2302000D01*
X1029300Y2301000D01*
G01X1034700Y2317300D02*
X1042800Y2301000D01*
G01X1090200D02*
Y2362000D01*
X1082100Y2349800D01*
G01Y2301000D02*
X1098300D01*
G01X1136200Y2313200D02*
X1140300Y2306100D01*
X1145700Y2302000D01*
X1151800Y2301000D01*
X1157200Y2302000D01*
X1162600Y2307100D01*
X1166000Y2313200D01*
X1166700Y2319300D01*
X1165300Y2326400D01*
X1160600Y2331500D01*
X1155800Y2333500D01*
X1149700D01*
G01X1155800D02*
X1159900Y2336600D01*
X1163300Y2341700D01*
X1164600Y2347800D01*
X1163300Y2353900D01*
X1159900Y2358900D01*
X1153800Y2362000D01*
X1147700Y2361000D01*
X1141600Y2356900D01*
G01X1197300Y3201000D02*
X1191900Y3202000D01*
X1187200Y3206100D01*
X1183100Y3212200D01*
X1180400Y3219300D01*
X1179000Y3227400D01*
Y3235600D01*
X1180400Y3243700D01*
X1183100Y3250800D01*
X1187200Y3256900D01*
X1191900Y3261000D01*
X1197300Y3262000D01*
X1202700Y3261000D01*
X1207400Y3256900D01*
X1211500Y3250800D01*
X1214200Y3243700D01*
X1215600Y3235600D01*
Y3227400D01*
X1214200Y3219300D01*
X1211500Y3212200D01*
X1207400Y3206100D01*
X1202700Y3202000D01*
X1197300Y3201000D01*
G01X1202700Y3217300D02*
X1210800Y3201000D01*
G01X1258200D02*
Y3262000D01*
X1250100Y3249800D01*
G01Y3201000D02*
X1266300D01*
G01X1319100D02*
X1323800Y3202000D01*
X1329200Y3205100D01*
X1332600Y3210100D01*
X1334000Y3217300D01*
X1332600Y3224400D01*
X1328600Y3230500D01*
X1322500Y3233500D01*
X1315700D01*
X1311700Y3235600D01*
X1308300Y3240600D01*
X1306900Y3247800D01*
X1309000Y3254900D01*
X1313700Y3260000D01*
X1319100Y3262000D01*
X1324500Y3260000D01*
X1329200Y3254900D01*
X1331300Y3247800D01*
X1329900Y3240600D01*
X1326500Y3235600D01*
X1322500Y3233500D01*
X1315700D01*
X1309600Y3230500D01*
X1305600Y3224400D01*
X1304200Y3217300D01*
X1305600Y3210100D01*
X1309000Y3205100D01*
X1314400Y3202000D01*
X1319100Y3201000D01*
G01X999800Y3803000D02*
Y3864000D01*
X1016700D01*
X1022100Y3860900D01*
X1025500Y3856900D01*
X1026800Y3848700D01*
X1025500Y3840600D01*
X1021400Y3835500D01*
X1016700Y3832500D01*
X999800D01*
G01X1016700D02*
X1026800Y3803000D01*
G01X1061300Y3853800D02*
X1065400Y3859900D01*
X1070100Y3863000D01*
X1075600Y3864000D01*
X1082300Y3862000D01*
X1087100Y3856900D01*
X1088400Y3850800D01*
X1087700Y3844700D01*
X1085000Y3839600D01*
X1071500Y3829400D01*
X1065400Y3822300D01*
X1061300Y3812100D01*
X1060000Y3803000D01*
X1088400D01*
G01X1135100Y3864000D02*
X1129700Y3862000D01*
X1125600Y3856900D01*
X1122900Y3850800D01*
X1120900Y3842600D01*
X1120200Y3833500D01*
X1120900Y3824300D01*
X1122900Y3816200D01*
X1125600Y3810100D01*
X1129700Y3805000D01*
X1135100Y3803000D01*
X1140500Y3805000D01*
X1144600Y3810100D01*
X1147300Y3816200D01*
X1149300Y3824300D01*
X1150000Y3833500D01*
X1149300Y3842600D01*
X1147300Y3850800D01*
X1144600Y3856900D01*
X1140500Y3862000D01*
X1135100Y3864000D01*
G01X1492800Y582000D02*
Y643000D01*
X1509700D01*
X1515100Y639900D01*
X1518500Y635900D01*
X1519800Y627700D01*
X1518500Y619600D01*
X1514400Y614500D01*
X1509700Y611500D01*
X1492800D01*
G01X1509700D02*
X1519800Y582000D01*
G01X1567200D02*
Y643000D01*
X1559100Y630800D01*
G01Y582000D02*
X1575300D01*
G01X1613200Y591100D02*
X1617300Y586100D01*
X1622000Y583000D01*
X1628100Y582000D01*
X1634200Y584000D01*
X1638900Y588100D01*
X1642300Y595200D01*
X1643000Y603300D01*
X1641600Y611500D01*
X1638200Y616600D01*
X1633500Y620600D01*
X1628800Y621600D01*
X1624000Y620600D01*
X1618000Y616600D01*
X1620000Y643000D01*
X1638200D01*
G01X1440800Y1114000D02*
Y1175000D01*
X1457700D01*
X1463100Y1171900D01*
X1466500Y1167900D01*
X1467800Y1159700D01*
X1466500Y1151600D01*
X1462400Y1146500D01*
X1457700Y1143500D01*
X1440800D01*
G01X1457700D02*
X1467800Y1114000D01*
G01X1502300Y1164800D02*
X1506400Y1170900D01*
X1511100Y1174000D01*
X1516600Y1175000D01*
X1523300Y1173000D01*
X1528100Y1167900D01*
X1529400Y1161800D01*
X1528700Y1155700D01*
X1526000Y1150600D01*
X1512500Y1140400D01*
X1506400Y1133300D01*
X1502300Y1123100D01*
X1501000Y1114000D01*
X1529400D01*
G01X1576100D02*
Y1175000D01*
X1568000Y1162800D01*
G01Y1114000D02*
X1584200D01*
G01X1513300Y1802000D02*
X1507900Y1803000D01*
X1503200Y1807100D01*
X1499100Y1813200D01*
X1496400Y1820300D01*
X1495000Y1828400D01*
Y1836600D01*
X1496400Y1844700D01*
X1499100Y1851800D01*
X1503200Y1857900D01*
X1507900Y1862000D01*
X1513300Y1863000D01*
X1518700Y1862000D01*
X1523400Y1857900D01*
X1527500Y1851800D01*
X1530200Y1844700D01*
X1531600Y1836600D01*
Y1828400D01*
X1530200Y1820300D01*
X1527500Y1813200D01*
X1523400Y1807100D01*
X1518700Y1803000D01*
X1513300Y1802000D01*
G01X1518700Y1818300D02*
X1526800Y1802000D01*
G01X1574200D02*
Y1863000D01*
X1566100Y1850800D01*
G01Y1802000D02*
X1582300D01*
G01X1635100Y1863000D02*
X1629700Y1861000D01*
X1625600Y1855900D01*
X1622900Y1849800D01*
X1620900Y1841600D01*
X1620200Y1832500D01*
X1620900Y1823300D01*
X1622900Y1815200D01*
X1625600Y1809100D01*
X1629700Y1804000D01*
X1635100Y1802000D01*
X1640500Y1804000D01*
X1644600Y1809100D01*
X1647300Y1815200D01*
X1649300Y1823300D01*
X1650000Y1832500D01*
X1649300Y1841600D01*
X1647300Y1849800D01*
X1644600Y1855900D01*
X1640500Y1861000D01*
X1635100Y1863000D01*
G01X1732300Y2319000D02*
X1726900Y2320000D01*
X1722200Y2324100D01*
X1718100Y2330200D01*
X1715400Y2337300D01*
X1714000Y2345400D01*
Y2353600D01*
X1715400Y2361700D01*
X1718100Y2368800D01*
X1722200Y2374900D01*
X1726900Y2379000D01*
X1732300Y2380000D01*
X1737700Y2379000D01*
X1742400Y2374900D01*
X1746500Y2368800D01*
X1749200Y2361700D01*
X1750600Y2353600D01*
Y2345400D01*
X1749200Y2337300D01*
X1746500Y2330200D01*
X1742400Y2324100D01*
X1737700Y2320000D01*
X1732300Y2319000D01*
G01X1737700Y2335300D02*
X1745800Y2319000D01*
G01X1793200D02*
Y2380000D01*
X1785100Y2367800D01*
G01Y2319000D02*
X1801300D01*
G01X1862200D02*
Y2380000D01*
X1837200Y2336300D01*
X1871000D01*
G01X1913200Y2253900D02*
X1909100Y2257000D01*
X1904400Y2259000D01*
X1899000D01*
X1892900Y2255900D01*
X1888200Y2250900D01*
X1884800Y2244800D01*
X1882100Y2234600D01*
X1881400Y2225400D01*
X1882700Y2216300D01*
X1884800Y2210200D01*
X1888800Y2204100D01*
X1893600Y2200000D01*
X1898300Y2198000D01*
X1903000D01*
X1907800Y2200000D01*
X1911800Y2203100D01*
X1915200Y2207100D01*
G01X1959200Y2198000D02*
Y2259000D01*
X1951100Y2246800D01*
G01Y2198000D02*
X1967300D01*
G01X1566800Y3193000D02*
Y3254000D01*
X1583700D01*
X1589100Y3250900D01*
X1592500Y3246900D01*
X1593800Y3238700D01*
X1592500Y3230600D01*
X1588400Y3225500D01*
X1583700Y3222500D01*
X1566800D01*
G01X1583700D02*
X1593800Y3193000D01*
G01X1641200D02*
Y3254000D01*
X1633100Y3241800D01*
G01Y3193000D02*
X1649300D01*
G01X1896300Y2815000D02*
X1890900Y2816000D01*
X1886200Y2820100D01*
X1882100Y2826200D01*
X1879400Y2833300D01*
X1878000Y2841400D01*
Y2849600D01*
X1879400Y2857700D01*
X1882100Y2864800D01*
X1886200Y2870900D01*
X1890900Y2875000D01*
X1896300Y2876000D01*
X1901700Y2875000D01*
X1906400Y2870900D01*
X1910500Y2864800D01*
X1913200Y2857700D01*
X1914600Y2849600D01*
Y2841400D01*
X1913200Y2833300D01*
X1910500Y2826200D01*
X1906400Y2820100D01*
X1901700Y2816000D01*
X1896300Y2815000D01*
G01X1901700Y2831300D02*
X1909800Y2815000D01*
G01X1957200D02*
Y2876000D01*
X1949100Y2863800D01*
G01Y2815000D02*
X1965300D01*
G01X2005200Y2840400D02*
X2010000Y2847500D01*
X2014000Y2851600D01*
X2019500Y2853600D01*
X2024200Y2851600D01*
X2027600Y2847500D01*
X2030300Y2841400D01*
X2031000Y2834300D01*
X2030300Y2828200D01*
X2027600Y2822100D01*
X2023500Y2817000D01*
X2018800Y2815000D01*
X2013400Y2817000D01*
X2008600Y2823100D01*
X2005900Y2832300D01*
X2005200Y2842400D01*
X2006600Y2855700D01*
X2008600Y2862800D01*
X2012000Y2869900D01*
X2016700Y2875000D01*
X2021500Y2876000D01*
X2026200Y2874000D01*
X2029600Y2868900D01*
G01X1747800Y3821000D02*
Y3882000D01*
X1764700D01*
X1770100Y3878900D01*
X1773500Y3874900D01*
X1774800Y3866700D01*
X1773500Y3858600D01*
X1769400Y3853500D01*
X1764700Y3850500D01*
X1747800D01*
G01X1764700D02*
X1774800Y3821000D01*
G01X1809300Y3871800D02*
X1813400Y3877900D01*
X1818100Y3881000D01*
X1823600Y3882000D01*
X1830300Y3880000D01*
X1835100Y3874900D01*
X1836400Y3868800D01*
X1835700Y3862700D01*
X1833000Y3857600D01*
X1819500Y3847400D01*
X1813400Y3840300D01*
X1809300Y3830100D01*
X1808000Y3821000D01*
X1836400D01*
G01X2246800Y293000D02*
Y354000D01*
X2263700D01*
X2269100Y350900D01*
X2272500Y346900D01*
X2273800Y338700D01*
X2272500Y330600D01*
X2268400Y325500D01*
X2263700Y322500D01*
X2246800D01*
G01X2263700D02*
X2273800Y293000D01*
G01X2321200D02*
X2325900Y294000D01*
X2331300Y297100D01*
X2334700Y302100D01*
X2336100Y309300D01*
X2334700Y316400D01*
X2330700Y322500D01*
X2324600Y325500D01*
X2317800D01*
X2313800Y327600D01*
X2310400Y332600D01*
X2309000Y339800D01*
X2311100Y346900D01*
X2315800Y352000D01*
X2321200Y354000D01*
X2326600Y352000D01*
X2331300Y346900D01*
X2333400Y339800D01*
X2332000Y332600D01*
X2328600Y327600D01*
X2324600Y325500D01*
X2317800D01*
X2311700Y322500D01*
X2307700Y316400D01*
X2306300Y309300D01*
X2307700Y302100D01*
X2311100Y297100D01*
X2316500Y294000D01*
X2321200Y293000D01*
G01X2532800Y409000D02*
Y470000D01*
X2549700D01*
X2555100Y466900D01*
X2558500Y462900D01*
X2559800Y454700D01*
X2558500Y446600D01*
X2554400Y441500D01*
X2549700Y438500D01*
X2532800D01*
G01X2549700D02*
X2559800Y409000D01*
G01X2607200D02*
Y470000D01*
X2599100Y457800D01*
G01Y409000D02*
X2615300D01*
G01X2666700D02*
X2668100Y422200D01*
X2670100Y433400D01*
X2672800Y443600D01*
X2676200Y454700D01*
X2681600Y470000D01*
X2654600D01*
G01X2604800Y1370000D02*
Y1431000D01*
X2621700D01*
X2627100Y1427900D01*
X2630500Y1423900D01*
X2631800Y1415700D01*
X2630500Y1407600D01*
X2626400Y1402500D01*
X2621700Y1399500D01*
X2604800D01*
G01X2621700D02*
X2631800Y1370000D01*
G01X2667700Y1377100D02*
X2672400Y1372000D01*
X2677800Y1370000D01*
X2683300Y1372000D01*
X2688000Y1378100D01*
X2691400Y1387300D01*
X2692700Y1396400D01*
Y1407600D01*
X2691400Y1416800D01*
X2688000Y1424900D01*
X2683900Y1429000D01*
X2679200Y1431000D01*
X2673800Y1429000D01*
X2669700Y1424900D01*
X2667000Y1418800D01*
X2665700Y1410700D01*
X2667000Y1403600D01*
X2670400Y1396400D01*
X2674500Y1392400D01*
X2679200Y1391300D01*
X2684600Y1393400D01*
X2688700Y1398500D01*
X2692700Y1407600D01*
G01X2202300Y1235000D02*
X2196900Y1236000D01*
X2192200Y1240100D01*
X2188100Y1246200D01*
X2185400Y1253300D01*
X2184000Y1261400D01*
Y1269600D01*
X2185400Y1277700D01*
X2188100Y1284800D01*
X2192200Y1290900D01*
X2196900Y1295000D01*
X2202300Y1296000D01*
X2207700Y1295000D01*
X2212400Y1290900D01*
X2216500Y1284800D01*
X2219200Y1277700D01*
X2220600Y1269600D01*
Y1261400D01*
X2219200Y1253300D01*
X2216500Y1246200D01*
X2212400Y1240100D01*
X2207700Y1236000D01*
X2202300Y1235000D01*
G01X2207700Y1251300D02*
X2215800Y1235000D01*
G01X2263200D02*
X2267900Y1236000D01*
X2273300Y1239100D01*
X2276700Y1244100D01*
X2278100Y1251300D01*
X2276700Y1258400D01*
X2272700Y1264500D01*
X2266600Y1267500D01*
X2259800D01*
X2255800Y1269600D01*
X2252400Y1274600D01*
X2251000Y1281800D01*
X2253100Y1288900D01*
X2257800Y1294000D01*
X2263200Y1296000D01*
X2268600Y1294000D01*
X2273300Y1288900D01*
X2275400Y1281800D01*
X2274000Y1274600D01*
X2270600Y1269600D01*
X2266600Y1267500D01*
X2259800D01*
X2253700Y1264500D01*
X2249700Y1258400D01*
X2248300Y1251300D01*
X2249700Y1244100D01*
X2253100Y1239100D01*
X2258500Y1236000D01*
X2263200Y1235000D01*
G01X2480300Y2491000D02*
X2474900Y2492000D01*
X2470200Y2496100D01*
X2466100Y2502200D01*
X2463400Y2509300D01*
X2462000Y2517400D01*
Y2525600D01*
X2463400Y2533700D01*
X2466100Y2540800D01*
X2470200Y2546900D01*
X2474900Y2551000D01*
X2480300Y2552000D01*
X2485700Y2551000D01*
X2490400Y2546900D01*
X2494500Y2540800D01*
X2497200Y2533700D01*
X2498600Y2525600D01*
Y2517400D01*
X2497200Y2509300D01*
X2494500Y2502200D01*
X2490400Y2496100D01*
X2485700Y2492000D01*
X2480300Y2491000D01*
G01X2485700Y2507300D02*
X2493800Y2491000D01*
G01X2528300Y2541800D02*
X2532400Y2547900D01*
X2537100Y2551000D01*
X2542600Y2552000D01*
X2549300Y2550000D01*
X2554100Y2544900D01*
X2555400Y2538800D01*
X2554700Y2532700D01*
X2552000Y2527600D01*
X2538500Y2517400D01*
X2532400Y2510300D01*
X2528300Y2500100D01*
X2527000Y2491000D01*
X2555400D01*
G01X2803300Y1978000D02*
X2797900Y1979000D01*
X2793200Y1983100D01*
X2789100Y1989200D01*
X2786400Y1996300D01*
X2785000Y2004400D01*
Y2012600D01*
X2786400Y2020700D01*
X2789100Y2027800D01*
X2793200Y2033900D01*
X2797900Y2038000D01*
X2803300Y2039000D01*
X2808700Y2038000D01*
X2813400Y2033900D01*
X2817500Y2027800D01*
X2820200Y2020700D01*
X2821600Y2012600D01*
Y2004400D01*
X2820200Y1996300D01*
X2817500Y1989200D01*
X2813400Y1983100D01*
X2808700Y1979000D01*
X2803300Y1978000D01*
G01X2808700Y1994300D02*
X2816800Y1978000D01*
G01X2864200D02*
Y2039000D01*
X2856100Y2026800D01*
G01Y1978000D02*
X2872300D01*
G01X2923700D02*
X2925100Y1991200D01*
X2927100Y2002400D01*
X2929800Y2012600D01*
X2933200Y2023700D01*
X2938600Y2039000D01*
X2911600D01*
G01X2162600Y3067000D02*
Y3023300D01*
X2165300Y3014100D01*
X2170700Y3008000D01*
X2177500Y3006000D01*
X2184300Y3008000D01*
X2189700Y3014100D01*
X2192400Y3023300D01*
Y3067000D01*
G01X2246500Y3006000D02*
Y3067000D01*
X2221500Y3023300D01*
X2255300D01*
G01X2594600Y3774000D02*
Y3730300D01*
X2597300Y3721100D01*
X2602700Y3715000D01*
X2609500Y3713000D01*
X2616300Y3715000D01*
X2621700Y3721100D01*
X2624400Y3730300D01*
Y3774000D01*
G01X2655500Y3725200D02*
X2659600Y3718100D01*
X2665000Y3714000D01*
X2671100Y3713000D01*
X2676500Y3714000D01*
X2681900Y3719100D01*
X2685300Y3725200D01*
X2686000Y3731300D01*
X2684600Y3738400D01*
X2679900Y3743500D01*
X2675100Y3745500D01*
X2669000D01*
G01X2675100D02*
X2679200Y3748600D01*
X2682600Y3753700D01*
X2683900Y3759800D01*
X2682600Y3765900D01*
X2679200Y3770900D01*
X2673100Y3774000D01*
X2667000Y3773000D01*
X2660900Y3768900D01*
G01X3221800Y906200D02*
X3225200Y900100D01*
X3229200Y896000D01*
X3233900Y894000D01*
X3239400Y896000D01*
X3243400Y900100D01*
X3247500Y906200D01*
X3248800Y914300D01*
Y955000D01*
G01X3281300Y906200D02*
X3285400Y899100D01*
X3290800Y895000D01*
X3296900Y894000D01*
X3302300Y895000D01*
X3307700Y900100D01*
X3311100Y906200D01*
X3311800Y912300D01*
X3310400Y919400D01*
X3305700Y924500D01*
X3300900Y926500D01*
X3294800D01*
G01X3300900D02*
X3305000Y929600D01*
X3308400Y934700D01*
X3309700Y940800D01*
X3308400Y946900D01*
X3305000Y951900D01*
X3298900Y955000D01*
X3292800Y954000D01*
X3286700Y949900D01*
G01X3493800Y1471000D02*
Y1532000D01*
X3510700D01*
X3516100Y1528900D01*
X3519500Y1524900D01*
X3520800Y1516700D01*
X3519500Y1508600D01*
X3515400Y1503500D01*
X3510700Y1500500D01*
X3493800D01*
G01X3510700D02*
X3520800Y1471000D01*
G01X3568200D02*
Y1532000D01*
X3560100Y1519800D01*
G01Y1471000D02*
X3576300D01*
G01X3629100D02*
Y1532000D01*
X3621000Y1519800D01*
G01Y1471000D02*
X3637200D01*
G01X3316800Y1706000D02*
Y1767000D01*
X3333700D01*
X3339100Y1763900D01*
X3342500Y1759900D01*
X3343800Y1751700D01*
X3342500Y1743600D01*
X3338400Y1738500D01*
X3333700Y1735500D01*
X3316800D01*
G01X3333700D02*
X3343800Y1706000D01*
G01X3378300Y1756800D02*
X3382400Y1762900D01*
X3387100Y1766000D01*
X3392600Y1767000D01*
X3399300Y1765000D01*
X3404100Y1759900D01*
X3405400Y1753800D01*
X3404700Y1747700D01*
X3402000Y1742600D01*
X3388500Y1732400D01*
X3382400Y1725300D01*
X3378300Y1715100D01*
X3377000Y1706000D01*
X3405400D01*
G01X3437200Y1718200D02*
X3441300Y1711100D01*
X3446700Y1707000D01*
X3452800Y1706000D01*
X3458200Y1707000D01*
X3463600Y1712100D01*
X3467000Y1718200D01*
X3467700Y1724300D01*
X3466300Y1731400D01*
X3461600Y1736500D01*
X3456800Y1738500D01*
X3450700D01*
G01X3456800D02*
X3460900Y1741600D01*
X3464300Y1746700D01*
X3465600Y1752800D01*
X3464300Y1758900D01*
X3460900Y1763900D01*
X3454800Y1767000D01*
X3448700Y1766000D01*
X3442600Y1761900D01*
G01X2915400Y1459000D02*
Y1520000D01*
X2928900D01*
X2934400Y1516900D01*
X2938400Y1512900D01*
X2941800Y1506800D01*
X2944500Y1499700D01*
X2945200Y1489500D01*
X2944500Y1479300D01*
X2941800Y1472200D01*
X2938400Y1466100D01*
X2934400Y1462000D01*
X2928900Y1459000D01*
X2915400D01*
G01X2999300D02*
Y1520000D01*
X2974300Y1476300D01*
X3008100D01*
G01X3357800Y2233000D02*
Y2294000D01*
X3374700D01*
X3380100Y2290900D01*
X3383500Y2286900D01*
X3384800Y2278700D01*
X3383500Y2270600D01*
X3379400Y2265500D01*
X3374700Y2262500D01*
X3357800D01*
G01X3374700D02*
X3384800Y2233000D01*
G01X3419300Y2283800D02*
X3423400Y2289900D01*
X3428100Y2293000D01*
X3433600Y2294000D01*
X3440300Y2292000D01*
X3445100Y2286900D01*
X3446400Y2280800D01*
X3445700Y2274700D01*
X3443000Y2269600D01*
X3429500Y2259400D01*
X3423400Y2252300D01*
X3419300Y2242100D01*
X3418000Y2233000D01*
X3446400D01*
G01X3480200Y2283800D02*
X3484300Y2289900D01*
X3489000Y2293000D01*
X3494500Y2294000D01*
X3501200Y2292000D01*
X3506000Y2286900D01*
X3507300Y2280800D01*
X3506600Y2274700D01*
X3503900Y2269600D01*
X3490400Y2259400D01*
X3484300Y2252300D01*
X3480200Y2242100D01*
X3478900Y2233000D01*
X3507300D01*
G01X3150800Y3067000D02*
Y3128000D01*
X3167700D01*
X3173100Y3124900D01*
X3176500Y3120900D01*
X3177800Y3112700D01*
X3176500Y3104600D01*
X3172400Y3099500D01*
X3167700Y3096500D01*
X3150800D01*
G01X3167700D02*
X3177800Y3067000D01*
G01X3210300Y3076100D02*
X3214400Y3071100D01*
X3219100Y3068000D01*
X3225200Y3067000D01*
X3231300Y3069000D01*
X3236000Y3073100D01*
X3239400Y3080200D01*
X3240100Y3088300D01*
X3238700Y3096500D01*
X3235300Y3101600D01*
X3230600Y3105600D01*
X3225900Y3106600D01*
X3221100Y3105600D01*
X3215100Y3101600D01*
X3217100Y3128000D01*
X3235300D01*
G01X3501800Y3071200D02*
X3505200Y3065100D01*
X3509200Y3061000D01*
X3513900Y3059000D01*
X3519400Y3061000D01*
X3523400Y3065100D01*
X3527500Y3071200D01*
X3528800Y3079300D01*
Y3120000D01*
G01X3584300Y3059000D02*
Y3120000D01*
X3559300Y3076300D01*
X3593100D01*
G01X3085400Y3807000D02*
Y3868000D01*
X3098900D01*
X3104400Y3864900D01*
X3108400Y3860900D01*
X3111800Y3854800D01*
X3114500Y3847700D01*
X3115200Y3837500D01*
X3114500Y3827300D01*
X3111800Y3820200D01*
X3108400Y3814100D01*
X3104400Y3810000D01*
X3098900Y3807000D01*
X3085400D01*
G01X3146300Y3816100D02*
X3150400Y3811100D01*
X3155100Y3808000D01*
X3161200Y3807000D01*
X3167300Y3809000D01*
X3172000Y3813100D01*
X3175400Y3820200D01*
X3176100Y3828300D01*
X3174700Y3836500D01*
X3171300Y3841600D01*
X3166600Y3845600D01*
X3161900Y3846600D01*
X3157100Y3845600D01*
X3151100Y3841600D01*
X3153100Y3868000D01*
X3171300D01*
G01X3627800Y3787000D02*
Y3848000D01*
X3644700D01*
X3650100Y3844900D01*
X3653500Y3840900D01*
X3654800Y3832700D01*
X3653500Y3824600D01*
X3649400Y3819500D01*
X3644700Y3816500D01*
X3627800D01*
G01X3644700D02*
X3654800Y3787000D01*
G01X3702200D02*
Y3848000D01*
X3694100Y3835800D01*
G01Y3787000D02*
X3710300D01*
G01X3750200Y3837800D02*
X3754300Y3843900D01*
X3759000Y3847000D01*
X3764500Y3848000D01*
X3771200Y3846000D01*
X3776000Y3840900D01*
X3777300Y3834800D01*
X3776600Y3828700D01*
X3773900Y3823600D01*
X3760400Y3813400D01*
X3754300Y3806300D01*
X3750200Y3796100D01*
X3748900Y3787000D01*
X3777300D01*
G54D11*
G01X298000Y2691000D02*
G03I-10000J0D01*
G01X808000Y1699000D02*
G03I-10000J0D01*
G01X1319000Y1724000D02*
G03I-10000J0D01*
G01X820000Y2212000D02*
G03I-10000J0D01*
G01X1336000Y2213000D02*
G03I-10000J0D01*
G01X728000Y3213000D02*
G03I-10000J0D01*
G01X1448000Y984000D02*
G03I-10000J0D01*
G01X1973000Y1695000D02*
G03I-10000J0D01*
G01X1627000Y2711000D02*
G03I-10000J0D01*
G01X2533000Y1869000D02*
G03I-10000J0D01*
G01X2526000Y2382000D02*
G03I-10000J0D01*
G01X2502500Y2718000D02*
Y2928000D01*
G01X2307500Y2718000D02*
Y2928000D01*
G01X2500500Y3446000D02*
Y3656000D01*
G01X2305500Y3446000D02*
Y3656000D01*
G54D12*
G01X2258500Y3403000D02*
G02I-12500J0D01*
G01X2307500Y2653000D02*
G02I-12500J0D01*
G54D13*
G01X179500Y506300D02*
X560500D01*
G01D02*
Y1052400D01*
G01D02*
X179500D01*
G01D02*
Y506300D01*
G01X275800Y1802100D02*
Y2208500D01*
G01X466200D02*
Y1802100D01*
G01D02*
X275800D01*
G01X560500Y1676700D02*
X179500D01*
G01D02*
Y1130600D01*
G01D02*
X560500D01*
G01D02*
Y1676700D01*
G01X275800Y2208500D02*
X466200D01*
G01X512200Y3313900D02*
Y2907500D01*
G01D02*
X321800D01*
G01D02*
Y3313900D01*
G01D02*
X512200D01*
G01X960800Y402100D02*
Y808500D01*
G01D02*
X1151200D01*
G01D02*
Y402100D01*
G01D02*
X960800D01*
G01X1354500Y2589800D02*
X948100D01*
G01D02*
Y2780200D01*
G01D02*
X1354500D01*
G01X1267900Y3589800D02*
X861500D01*
G01D02*
Y3780200D01*
G01D02*
X1267900D01*
G01D02*
Y3589800D01*
G01X2257200Y388500D02*
X2066800D01*
G01D02*
Y794900D01*
G01D02*
X2257200D01*
G01X1372100Y558200D02*
X1778500D01*
G01D02*
Y367800D01*
G01D02*
X1372100D01*
G01D02*
Y558200D01*
G01X1587800Y684100D02*
Y1090500D01*
G01D02*
X1778200D01*
G01D02*
Y684100D01*
G01D02*
X1587800D01*
G01X1354500Y2780200D02*
Y2589800D01*
G01X1929100Y2158200D02*
X2335500D01*
G01Y1967800D02*
X1929100D01*
G01D02*
Y2158200D01*
G01X1875200Y3405900D02*
Y2999500D01*
G01D02*
X1684800D01*
G01D02*
Y3405900D01*
G01D02*
X1875200D01*
G01X1576100Y3785200D02*
X1982500D01*
G01D02*
Y3594800D01*
G01D02*
X1576100D01*
G01D02*
Y3785200D01*
G01X2257200Y794900D02*
Y388500D01*
G01X2616200Y1325900D02*
Y919500D01*
G01D02*
X2425800D01*
G01D02*
Y1325900D01*
G01X2401100Y696200D02*
X2807500D01*
G01D02*
Y505800D01*
G01D02*
X2401100D01*
G01D02*
Y696200D01*
G01X2928400Y1036400D02*
X2819200D01*
G01D02*
Y1437700D01*
G01X2425800Y1325900D02*
X2616200D01*
G01X2819200Y1437700D02*
X3080800D01*
G01X2335500Y2158200D02*
Y1967800D01*
G01X2942500Y326300D02*
X3323500D01*
G01D02*
Y872400D01*
G01X2942500D02*
Y326300D01*
G01X3650200Y1039500D02*
X3459800D01*
G01D02*
Y1445900D01*
G01X3323500Y872400D02*
X2942500D01*
G01X3080800Y1437700D02*
Y1036400D01*
G01D02*
X2971600D01*
G01D02*
X2950000Y1014800D01*
G01D02*
X2928400Y1036400D01*
G01X3459800Y1445900D02*
X3650200D01*
G01X3271200Y1925900D02*
Y1519500D01*
G01D02*
X3080800D01*
G01D02*
Y1925900D01*
G01X3274200Y3030900D02*
Y2624500D01*
G01D02*
X3083800D01*
G01D02*
Y3030900D01*
G01X3274200Y2454900D02*
Y2048500D01*
G01D02*
X3083800D01*
G01D02*
Y2454900D01*
G01D02*
X3274200D01*
G01X3080800Y1925900D02*
X3271200D01*
G01X3449500Y2458300D02*
X3830500D01*
G01X3449500Y3004400D02*
Y2458300D01*
G01X3083800Y3030900D02*
X3274200D01*
G01X3790200Y3343500D02*
X3599800D01*
G01D02*
Y3749900D01*
G01X3830500Y3004400D02*
X3449500D01*
G01X3051200Y3353300D02*
Y3754600D01*
G01X3312800D02*
Y3353300D01*
G01D02*
X3051200D01*
G01X3599800Y3749900D02*
X3790200D01*
G01X3051200Y3754600D02*
X3160400D01*
G01D02*
X3182000Y3776200D01*
G01D02*
X3203600Y3754600D01*
G01D02*
X3312800D01*
G01X3650200Y1445900D02*
Y1039500D01*
G01X3830500Y2458300D02*
Y3004400D01*
G01X3790200Y3749900D02*
Y3343500D01*
G54D14*
G01X518000Y2451000D02*
X582000D01*
Y2534000D01*
G01Y2658000D02*
Y2741000D01*
X517000D01*
G01X1144000Y1017000D02*
Y934000D01*
X1209000D01*
G01X1092000Y1666000D02*
Y1749000D01*
X1027000D01*
G01X1028000Y1459000D02*
X1092000D01*
Y1542000D01*
G01X1208000Y1224000D02*
X1144000D01*
Y1141000D01*
G01X1104000Y2179000D02*
Y2262000D01*
X1039000D01*
G01X1040000Y1972000D02*
X1104000D01*
Y2055000D01*
G01X1010000Y3217000D02*
Y3300000D01*
X945000D01*
G01X946000Y3010000D02*
X1010000D01*
Y3093000D01*
G01X1650000Y1663000D02*
Y1746000D01*
X1585000D01*
G01X1586000Y1456000D02*
X1650000D01*
Y1539000D01*
G01Y2185000D02*
Y2268000D01*
X1585000D01*
G01X1586000Y1978000D02*
X1650000D01*
Y2061000D01*
G01X1847000Y2471000D02*
X1911000D01*
Y2554000D01*
G01Y2678000D02*
Y2761000D01*
X1846000D01*
G01X2191000Y1555000D02*
Y1638000D01*
X2126000D01*
G01X2127000Y1348000D02*
X2191000D01*
Y1431000D01*
G01X2817000Y1836000D02*
Y1919000D01*
X2752000D01*
G01X2753000Y1629000D02*
X2817000D01*
Y1712000D01*
G01X2810000Y2349000D02*
Y2432000D01*
X2745000D01*
G01X2746000Y2142000D02*
X2810000D01*
Y2225000D01*
M02*
